<svg xmlns="http://www.w3.org/2000/svg" width="1280" height="1280"><path fill="#F1EBE0" d="M0 0h1280v1280H0V0Z"/><path fill="#FAFCFC" d="M436 613h1l.586 6.152L438 621c2.366 1.183 3.774 1.123 6.413 1.12l2.829.004 3.128-.01h3.307c3.681 0 7.363-.009 11.044-.016l7.887-.005c5.674-.003 11.347-.01 17.02-.018 8.204-.012 16.408-.018 24.611-.023 13.31-.007 26.621-.018 39.932-.031l2.415-.003a589325.682 589325.682 0 0 0 36.374-.039l2.413-.002c13.26-.014 26.522-.023 39.782-.03 8.188-.005 16.375-.013 24.562-.026 6.266-.009 12.532-.013 18.797-.016 2.578-.002 5.156-.005 7.734-.01 3.503-.008 7.006-.009 10.509-.009l3.135-.01 2.82.004 2.454-.003C707 622 707 622 708 623c1.777.099 3.559.126 5.34.127l3.509.009 3.885-.007 4.064.006c3.69.004 7.38.002 11.07 0 3.856-.003 7.712 0 11.568 0 6.478.003 12.956 0 19.435-.005 7.494-.005 14.988-.003 22.482.002 6.426.005 12.853.005 19.279.003 3.841-.002 7.683-.002 11.524.001 3.613.003 7.226.001 10.84-.005 1.961-.002 3.923.001 5.884.005l3.527-.009 3.071-.001c2.65-.02 2.65-.02 5.522-1.126v2l3.222-.011c25.846-.089 51.693-.155 77.54-.196 12.498-.02 24.997-.049 37.496-.095 10.892-.04 21.784-.065 32.676-.074 5.77-.006 11.538-.018 17.308-.047 5.427-.027 10.853-.035 16.28-.03 1.995 0 3.99-.009 5.984-.024 2.719-.02 5.436-.015 8.154-.004l2.406-.035c3.479.038 5.552.245 8.424 2.282 1.644 2.433 2.01 3.555 2.011 6.453l.03 2.528-.03 2.747.017 2.914c.013 3.178-.004 6.355-.022 9.533 0 2.207.002 4.414.005 6.62 0 4.625-.012 9.249-.034 13.873-.029 5.935-.026 11.868-.013 17.803.007 4.556-.001 9.112-.014 13.668-.004 2.189-.004 4.377 0 6.566.002 3.055-.014 6.11-.036 9.164l.014 2.754-.03 2.519-.008 2.188c-.51 2.55-1.264 3.405-3.38 4.904-2.299.382-2.299.382-5.052.392l-3.165.034-3.471-.01c-1.207.01-2.414.018-3.657.027-3.313.02-6.624.028-9.937.03-3.47.006-6.94.03-10.41.05-6.582.04-13.163.064-19.745.082-11.768.033-23.535.091-35.303.154-4.127.021-8.253.037-12.38.047-3.181.008-6.363.023-9.545.036l-3.44.003c-5.725.03-11.233.296-16.895 1.155v-2l-2.115.038c-9.774.172-19.548.322-29.322.462l-2.528.036c-27.19.387-54.378.505-81.57.495h-2.33c-15.62-.006-31.241-.021-46.861-.054-5.99-.013-11.979-.022-17.968-.03-4.186-.005-8.372-.015-12.559-.029-3.177-.01-6.355-.012-9.532-.016l-3.415-.015c-5.706 0-11.153.298-16.8 1.113-2.938 0-5.842-.168-8.773-.35-11.527-.69-23.03-.804-34.576-.78-3.203.005-6.405 0-9.608-.007-2.046 0-4.091.002-6.137.004l-2.888-.006-2.664.01-2.337.002c-2.223.054-2.223.054-5.017 1.127a76.577 76.577 0 0 1-4.763-.431c-9.988-.929-20.011-.691-30.033-.667l-6.946.005c-4.993.003-9.986.009-14.98.018-7.325.012-14.65.02-21.977.024-11.368.008-22.737.018-34.106.031a83832.98 83832.98 0 0 1-94.742.04c-46.346.003-92.692-.008-139.037-.296-4.936-.03-9.872-.052-14.808-.07-6.417-.025-12.833-.065-19.25-.117-2.26-.017-4.521-.028-6.782-.035-2.981-.009-5.962-.037-8.943-.07l-2.61.005c-2.349-.038-2.349-.038-6.023-.437-2.043-3.065-2.252-3.685-2.267-7.137l-.026-2.55.002-2.786-.02-2.942c-.019-3.216-.023-6.432-.025-9.648l-.02-6.691c-.012-4.677-.016-9.355-.015-14.032 0-6.003-.027-12.005-.061-18.008-.022-4.607-.026-9.213-.025-13.82-.003-2.214-.012-4.427-.027-6.64-.02-3.092-.014-6.182-.002-9.273l-.034-2.787.026-2.549-.004-2.214C220 627 220 627 221.7 625.264c2.756-1.515 4.466-1.634 7.602-1.625l3.255-.012 3.555.032h3.756c3.394 0 6.788.016 10.183.037 3.548.019 7.097.02 10.646.024 6.718.01 13.436.034 20.155.064 7.649.033 15.298.05 22.948.065 15.733.031 31.467.084 47.2.151v-2l3 1c2.57.091 5.114.126 7.684.114h2.366c2.581 0 5.162-.009 7.743-.016l5.368-.005c4.71-.003 9.42-.013 14.13-.024 4.806-.01 9.612-.015 14.418-.02 9.43-.01 18.86-.028 28.291-.049l2-10Z"/><path fill="#060707" d="m814.188 468.688 2.464.006c29.488.125 56.595 6.87 82.785 20.556l1.92.998c3.11 1.684 4.64 2.747 6.643 5.752.21 2.518.21 2.518.15 5.476l-.055 3.251L908 508l-.079 2.872a838.837 838.837 0 0 1-.323 8.51l-.128 3.096a5235.38 5235.38 0 0 1-.27 6.398c-.139 3.275-.27 6.551-.401 9.827-.088 2.08-.175 4.162-.264 6.242l-.117 2.97-.12 2.734-.102 2.407C906 555 906 555 905 557c-4.537-.523-4.537-.523-6.546-2.592l-1.313-2.127-1.53-2.472c-2.738-4.774-5.347-9.61-7.902-14.484-1.638-3.117-3.299-6.22-4.959-9.325l-.987-1.847C868.583 498.832 868.583 498.832 845 484l-3.54-1.242c-19.644-5.898-41.044-4.439-59.273 4.93-13.631 7.508-22.09 17.555-26.625 32.562-3.755 15.849-2.092 33.174 5.438 47.75 1.796 2.867 3.788 5.443 6 8l1.45 1.7c16.439 17.764 41.247 27.281 62.956 36.64l2.493 1.082c1.52.656 3.042 1.304 4.569 1.941 3.973 1.713 6.583 3.51 9.532 6.637-18.167.117-36.335.205-54.502.26-8.436.025-16.871.06-25.306.117-7.353.05-14.705.082-22.057.093-3.893.007-7.786.022-11.679.059-3.665.034-7.33.044-10.994.037-1.985.002-3.97.028-5.955.056-8.722-.05-8.722-.05-12.728-2.966-14.218-21.227-17.91-48.729-13.279-73.593 3.156-15.217 9.504-28.197 19.5-40.063l1.598-2.121c18.07-22.969 51.575-32.926 79.225-36.473 7.432-.798 14.898-.754 22.365-.719ZM519.54 468.797l2.408-.022c37.818-.259 73.727 5.126 107.052 24.225 1.532 3.064 1.361 6.33 1.535 9.7l.13 2.361c.139 2.542.269 5.084.398 7.627l.135 2.598c.705 13.585 1.06 27.11.802 40.714-1.85.617-1.85.617-4 1-4.797-3.738-7.493-8.798-10.5-14a4327.928 4327.928 0 0 0-3.172-5.375l-1.65-2.8c-7.2-12.122-14.5-24.333-22.678-35.825l-1.547-2.25c-7.025-9.181-20.004-13.927-31.023-16.305-26.683-3.464-53.668 2.746-75.305 18.993A167.004 167.004 0 0 0 478 503l-2.191 1.91c-28.651 26.658-38.742 72.377-40.434 109.84l-.085 2.475c-.199 5.684-.199 5.684-1.29 6.775-2.484.106-4.94.147-7.426.145l-2.355.01c-2.582.01-5.164.012-7.746.013l-5.363.01c-3.751.006-7.503.008-11.255.007-4.817 0-9.634.014-14.45.031-3.694.011-7.387.013-11.08.013-1.776 0-3.552.005-5.328.013-2.481.01-4.961.007-7.442 0-.74.007-1.479.012-2.24.018-5.087-.032-5.087-.032-7.315-2.26-.225-8.088 1.658-16.188 3.563-24l.797-3.275c7.437-29.276 22.47-55.279 43.64-76.725l1.65-1.714c4.005-4.11 8.187-7.735 12.788-11.161l2.093-1.56c7.137-5.207 14.616-9.54 22.469-13.565l2.018-1.046c23.96-12.28 51.497-19.997 78.521-20.157Z"/><path fill="#F1EBE0" d="M442 730c22.35-.023 44.698-.041 67.047-.052 10.378-.005 20.756-.012 31.134-.023 9.05-.01 18.098-.017 27.147-.02 4.788 0 9.576-.003 14.364-.01 4.515-.008 9.029-.01 13.543-.008 1.65 0 3.3-.002 4.949-.006 20.527-.046 20.527-.046 26.816 1.119l2 2c-2.414 5.263-4.83 10.524-7.251 15.784-.82 1.781-1.638 3.564-2.455 5.346-21.705 47.33-21.705 47.33-41.225 55.11-9.328 3.424-19.137 5.45-29.069 5.76l-3.668.121c-27.186.593-51.85-6.653-72.332-25.121-15.715-15.179-25.724-36.979-31-58v-2ZM721.494 729.886h4.378c3.942 0 7.883.006 11.825.013 4.126.006 8.253.006 12.38.008 7.805.003 15.61.01 23.416.021 8.89.011 17.78.017 26.67.022 18.279.01 36.558.028 54.837.05l-.027 3.3c.026 3.5.416 6.636 1.027 10.075 2.407 15.256.486 32.69-8.625 45.625-12.713 15.78-26.616 23.205-46.639 25.487-5.284.535-10.435.766-15.736.513l-3.191-.09c-20.466-.937-40.705-8.693-54.809-23.91-3.916-4.343-7.406-8.758-10.375-13.813l-1.214-2.062c-4.812-8.458-8.934-17.274-13.098-26.063l-1.121-2.349a1006.32 1006.32 0 0 1-3.141-6.678l-.98-2.059c-.752-1.632-1.42-3.301-2.071-4.976l1-2h3l3.282-.493c6.376-.82 12.795-.638 19.212-.62Z"/><path fill="#060707" d="M368 730h74l7 20c1.703 4.06 3.393 7.994 5.313 11.938l1.413 2.918c8.076 16.19 19.558 28.092 35.274 37.144l2.355 1.367c22.447 12.107 52.207 14.314 76.665 7.598 12.457-3.763 24.614-9.118 31.394-20.785.753-1.427 1.49-2.862 2.211-4.305l1.244-2.417c4.458-8.824 8.43-17.88 12.425-26.92C621.27 747.55 625.458 738.714 630 730l5 1c.11 23.025.1 45.995-1 69-28.193 15.16-60.917 24.445-93 25l-2.938.062c-41.83.775-85.795-6.178-120.062-32.062l-1.583-1.152C396.337 777.218 378.292 757.884 368 735v-5ZM861.14 729.839l3.985-.03 4.34-.012 4.42-.017c3.093-.01 6.186-.017 9.279-.02 3.97-.006 7.938-.03 11.908-.058 3.044-.019 6.089-.024 9.133-.026 1.464-.003 2.928-.01 4.391-.024 2.045-.017 4.09-.013 6.134-.008l3.53-.011c.905.12 1.809.242 2.74.367 3.269 4.903 1.454 10.367.435 15.923-4.987 23.835-20.564 44.694-40.498 58.39C851.997 823.22 816.493 825.531 783 825l-2.283-.022c-32.183-.434-65.643-9.342-93.717-24.978-.103-14.553-.102-29.08.437-43.625l.12-3.277c.206-5.087.478-10.169.853-15.246l.196-2.685C689 733 689 733 691 731h4l1.158 2.408c3.388 7.04 6.782 14.077 10.188 21.108 1.702 3.513 3.396 7.03 5.084 10.55 10.386 21.464 23.656 36.593 46.474 44.602 8.948 2.916 17.722 4.068 27.096 4.332l2.535.121c20.566.584 38.502-4.703 53.715-18.809 10.859-11.267 15.05-27.31 14.918-42.714-.272-4.21-1-8.334-1.73-12.485A47.805 47.805 0 0 1 854 731c1.823-1.823 4.69-1.147 7.14-1.161ZM400.975 663.678l2.337.01 2.303-.05c4.616-.003 7.648.368 11.385 3.362 2.65 3.974 2.87 7.323 2 12-2.5 2.562-2.5 2.562-5 4 .436 3.624.436 3.624 2.5 6.5 1.999 1.999 2.129 3.754 2.5 6.5-4.255-1.324-5.942-2.779-8.25-6.563l-1.516-2.44L408 685c-.98-1.197-.98-1.197-2.813-1.133l-2.187.008-2.188-.008c-1.833-.064-1.833-.064-2.812 1.133a123.141 123.141 0 0 0-.563 5.562l-.253 3.067L397 696l-4-2c-.05-3.951-.086-7.902-.11-11.853-.015-2.006-.04-4.012-.066-6.018l-.02-3.809-.031-3.523c.44-5.425 3.445-5.074 8.202-5.12Z"/><path fill="#FAFCFC" d="M478 668c3.057 2.596 5.743 5.89 6.238 9.953.18 5.554-.501 8.65-4.238 13.047-4.236 2.118-9.41 1.616-14 1-3.563-1.805-5.322-4.2-6.715-7.898-.968-4.667.003-8.306 2.356-12.399 3.994-5.004 10.618-5.918 16.359-3.703Z"/><path fill="#FBFDFD" d="M940.688 667.688c3.356 1.905 5.08 3.06 7.312 6.312.93 5.8.985 10.991-1.625 16.313-5.506 2.753-11.333 2.24-17.375 1.687-1-1-1-1-1.114-3.225l.016-2.904.01-3.135.025-3.298.014-3.311c.012-2.71.028-5.418.049-8.127 3.893-1.946 8.575-1.365 12.688-.312Z"/><path fill="#060707" d="M871 664h3c3.163 6.174 6.012 12.44 8.75 18.813l1.246 2.85 1.176 2.732 1.065 2.464C887 693 887 693 887 696c-1.875-.625-1.875-.625-4-2l-2-6-17-1-2 7-3 2c-1.545-3.924-.378-6.245 1.238-10.008l1.487-3.488 1.587-3.629 1.553-3.652C868.71 666.29 868.71 666.29 871 664ZM342 664c3 1 3 1 4.442 3.636l1.476 3.481.794 1.858a540.165 540.165 0 0 1 1.641 3.899c.83 1.991 1.678 3.975 2.528 5.958C357 692.557 357 692.557 357 696c-1.812-.625-1.812-.625-4-2l-1.125-3.031L350 688c-2.985-.633-5.203-.885-8.187-.875l-2.272-.062A239.168 239.168 0 0 0 334 687l-.812 3.375C332 694 332 694 329 696c-1.537-3.915-.39-6.244 1.203-10.008l1.473-3.488 1.574-3.629 1.527-3.652C338.61 666.26 338.61 666.26 342 664ZM1001 664c3 1 3 1 4.334 3.313l1.33 3.042 1.461 3.327 1.5 3.505 1.523 3.448c2.242 5.162 4.103 9.755 4.852 15.365-1.812-.625-1.812-.625-4-2l-1.125-3.031L1009 688c-2.985-.633-5.203-.885-8.187-.875l-2.272-.062A239.168 239.168 0 0 0 993 687l-3 9h-2c-1.302-3.906-.385-5.128 1.203-8.875l1.473-3.484L992.25 680l1.527-3.64c4.167-9.755 4.167-9.755 7.223-12.36ZM707 664c3.623 6.619 6.507 13.507 9.313 20.5l1.095 2.718 1.018 2.563.919 2.315C720 694 720 694 720 696c-1.875-.625-1.875-.625-4-2l-2-6-17-1-2 7-3 2c-1.537-3.915-.39-6.244 1.203-10.008l1.473-3.488 1.574-3.629 1.527-3.652C702.577 664 702.577 664 707 664ZM629 664c3.465 1.155 3.937 1.94 5.96 4.86.555.786 1.11 1.572 1.68 2.382l1.735 2.508c1.128 1.623 2.261 3.243 3.398 4.86l1.514 2.186c2.014 2.591 4.392 4.883 6.713 7.204v-22h4v29c-4 0-4 0-6.43-2.09-2.709-3.067-5.236-6.205-7.695-9.472A1386.974 1386.974 0 0 1 635 677l-1.805-2.278C632 673 632 673 632 671h-2v25l-4-2c-.087-4.437-.14-8.875-.187-13.312l-.077-3.827-.029-3.662-.048-3.38C626 667 626 667 627.52 665.113c.488-.368.977-.735 1.481-1.113ZM933.25 663.688l3.953-.051c4.02.384 6.394 1.23 9.797 3.363 4.483 5.815 5.89 10.779 5 18-2.702 5.304-6.295 9.098-12 11-2.352.12-4.708.175-7.062.188l-3.786.042C926 696 926 696 924 694c-.259-2.766-.259-2.766-.266-6.25l-.007-3.781.023-3.969-.023-3.969.007-3.781.007-3.484c.554-5.92 4.513-5.064 9.509-5.078ZM928 668c-.029 3.812-.047 7.625-.062 11.438l-.026 3.298-.01 3.135-.016 2.904c-.137 2.198-.137 2.198 1.114 3.225 6.042.554 11.869 1.066 17.375-1.687 2.62-5.34 2.668-10.5 1.625-16.313-1.878-3.316-4.233-5.425-7.945-6.633-3.921-.7-8.446-1.172-12.055.633ZM480.313 665.625c4.697 4.15 7.461 8.386 7.937 14.688-.315 4.642-1.352 7.809-4.715 11.136-4.494 3.835-7.233 4.97-13.015 4.895-5.66-.773-10.136-3.54-13.582-8.032-1.68-5.933-2.047-11.094.75-16.687 6.237-7.08 13.713-10.371 22.625-6ZM462 671c-2.75 4.333-3.633 8.074-2.68 13.066 1.32 3.753 3.123 6.095 6.68 7.934 4.14.778 7.861.794 12 0 2.974-2.216 4.37-3.74 6-7 .57-4.675.438-8.123-1.687-12.375-2.912-3.305-5.253-5.235-9.625-6.062-4.05.659-7.368 2.006-10.688 4.437ZM815 664c3 1.125 3 1.125 5 3 1.313 3.188 1.313 3.188 2 6-2.255-1.086-4.114-2.093-6.062-3.687-4.61-2.06-9.041-1.025-13.938-.313.442 2.968.442 2.968 2 6 2.6 1.214 4.706 1.991 7.438 2.688 8.327 2.276 8.327 2.276 10.562 5.312 1.42 2.84 1.315 4.855 1 8-2.232 2.848-3.55 3.85-7 5-6.78.723-11.571.274-17-4-.937-2.75-.937-2.75-1-5h3l1.766 1.984c3.05 2.752 4.948 2.427 8.984 2.266l3.547-.11L818 691v-6c-4.68-2.53-9.463-4.262-14.512-5.937-2.505-1.07-3.865-1.89-5.488-4.063.078-3.685.558-5.472 2.938-8.312 4.33-3.543 8.662-3.147 14.062-2.688ZM867.688 935.688c4.427.12 7.446 1.147 11.312 3.312 1.937 2.421 2.022 3.535 1.875 6.625C880 948 880 948 877.938 949.313L876 950l1.438 2.813C879 956 879 956 880 959c-3.356-1.389-5.073-2.917-7-6v-2h-8v8h-2c-1.768-3.536-1.185-7.606-1.187-11.5l-.038-2.668-.005-2.55-.013-2.343c.488-3.896 2.287-3.943 5.93-4.251ZM599.777 889.707c3.01.397 4.884 1.379 7.223 3.293 2.148 3.221 2.561 4.26 2 8-2 1.813-2 1.813-4 3l1 2.813c1 3.187 1 3.187 1 6.187-4.875-4.75-4.875-4.75-6-7h-7l-1 7h-2c-1.703-3.407-1.227-7.183-1.25-10.937l-.062-2.499-.016-2.404-.028-2.199c1.016-5.59 5.434-5.414 10.133-5.254ZM811.988 889.734c8.172.055 8.172.055 12.012 2.266 2.342 3.513 2.496 4.865 2 9-2 2.875-2 2.875-4 5l2 2.375c2 2.625 2 2.625 2 4.625-3.356-1.389-5.073-2.917-7-6v-2h-8v8h-2c-1.768-3.536-1.185-7.606-1.187-11.5l-.038-2.668-.005-2.55-.013-2.343c.355-2.835 1.414-3.828 4.231-4.205ZM821.875 982.625l3.18-.086c3.611.565 4.715 1.629 6.945 4.461 1 2.5 1 2.5 1 5a181.008 181.008 0 0 1-4 4c.112 3.468 2.169 6.133 4 9h-3v-2l-3-1c-1.187-2.062-1.187-2.062-2-4h-7l-1 7h-2c-1.71-3.418-1.185-7.234-1.187-11l-.038-2.523-.005-2.414-.013-2.215c.614-4.666 4.287-4.176 8.118-4.223Z"/><path fill="#F1EBE0" d="M777 894c2.865 2.292 3.361 4.948 4 8.438.276 3.619.059 4.462-1.875 7.75-3.44 1.995-4.044 2-7.75 1.25-3-.824-4.728-1.674-7.375-3.438-1.033-2.988-1.288-5.856-1-9 4.346-5.638 7.14-6.565 14-5Z"/><path fill="#060707" d="M286.313 665.125c3.208 2.239 4.25 4.282 5.687 7.875-5.624-1.662-5.624-1.662-7.875-3.687-3.356-2.073-6.411-1.184-10.125-.313-2.623.897-3.62 1.387-5.074 3.734-1.757 4.299-1.538 8.72-.926 13.266 1.52 3.436 1.52 3.436 5 5 4.088.614 7.936.81 12 0 2.172-1.974 2.172-1.974 4-4h3c-1.507 4.068-4.214 6.958-8 9-5.447 1.178-10.459.112-15.27-2.605-4.148-3.344-5.485-7.713-6.23-12.832.749-5.334 1.959-10.46 6.266-14.024 5.856-3.25 11.172-3.579 17.546-1.414Z"/><path fill="#FBFDFD" d="m401.242 666.77 2.633.043 2.617.019c2.337.157 4.3.393 6.508 1.168 2.195 2.724 3.058 4.163 2.813 7.688C415 678 415 678 413 680c-3.187.266-3.187.266-7 .25l-3.812.016C399 680 399 680 397 678c-.266-2.094-.266-2.094-.25-4.5l-.016-2.406c.392-3.088 1.436-4.009 4.508-4.324Z"/><path fill="#060707" d="m930.688 889.813 3.574.082L937 890l1 3-12 1-1 4c1.896 1.896 5.295 1.366 7.871 1.523C935 900 935 900 937 903c-1 1-1 1-3.504 1.098l-3.058-.035-3.067-.028L925 904v5l12 1v4c-5.439.218-9.87.104-15-2-.8-4.261-1.19-8.352-1.25-12.687l-.078-3.387C921 893 921 893 922.098 891.117c2.868-1.684 5.301-1.402 8.59-1.304ZM776.969 982.77l3.531.043 3.531.019C787 983 787 983 789 984v2l-13 1v5l2.117-.105 2.758-.082 2.742-.106L786 992l2 3c-1.74 1.74-4.194 1.372-6.562 1.563l-3.067.253L776 997v6l2.336-.035 3.039-.028 3.023-.035C787 1003 787 1003 789 1004v2a383.93 383.93 0 0 1-5.125.125l-2.883.07c-3.281-.214-5.926-1.04-8.992-2.195-.058-3.125-.094-6.25-.125-9.375l-.05-2.695-.02-2.578-.032-2.38c.405-3.52 1.856-3.943 5.196-4.202ZM698 935.688l3.25-.051L704 936l2 3-12 1v5l9 1v2h2v2h-12l1 5 2.336.113 3.039.2 3.023.175L705 956l2 3c-3.067 1.022-5.287 1.166-8.5 1.188l-2.906.042C693 960 693 960 690 958c-.372-2.031-.372-2.031-.363-4.5l.002-2.687.048-2.813-.01-2.812c.058-7.192.48-9.472 8.323-9.5ZM829 935.75l3.25-.078L835 936l2 3-12 1v7l2-1c2.333-.04 4.667-.043 7 0v2h2v2h-12v5l12 1 1 4c-2.291.054-4.583.093-6.875.125l-3.867.07C823 960 823 960 821 958c-.227-2.155-.227-2.155-.195-4.79l.02-2.85.05-2.985.027-3.008c.024-2.456.057-4.911.098-7.367 2.72-1.36 4.966-1.206 8-1.25ZM526 665l3 1 1 25c4.846.21 4.846.21 9.693.388 1.778.097 3.545.353 5.307.612l2 3c-2.24 2.24-7.429 1.185-10.437 1.188l-2.682.037-2.565.005-2.36.013C527 696 527 696 525 694c-.243-2.674-.243-2.674-.23-6.031l.005-3.645.038-3.824.001-3.824c.046-9.396.046-9.396 1.186-11.676Z"/><path fill="#0B0C0B" d="M732 937h3c1.815 2.28 3.45 4.522 5.063 6.938 2.83 4.704 2.83 4.704 6.937 8.062l.148-2.773.227-3.602c.07-1.183.14-2.367.21-3.586C748 939 748 939 750 937c2.164 2.164 1.467 6.866 1.625 9.875l.156 2.512.133 2.418.124 2.218C752 956 752 956 751 959c-4.919-1.393-6.784-3.898-9.687-8-2.94-4.185-2.94-4.185-6.313-8l-1 16-3-1c-.029-3.125-.047-6.25-.062-9.375l-.026-2.695-.01-2.578-.016-2.38C731 939 731 939 732 937Z"/><path fill="#080909" d="M657 983a84.37 84.37 0 0 1 12 14v2h2l1-14h3c.027 2.77.047 5.542.063 8.313l.025 2.38.01 2.295.016 2.11C675 1002 675 1002 674 1005c-5.396-1.38-7.378-4.734-10.312-9.125-.455-.659-.91-1.317-1.377-1.996A536.337 536.337 0 0 1 659 989c-1.996 1.996-1.41 5.817-1.562 8.563l-.131 2.154c-.107 1.76-.207 3.522-.307 5.283l-3-1a571.84 571.84 0 0 1-.187-7.687l-.077-2.186c-.063-4.603.486-7.43 3.264-11.127Z"/><path fill="#060707" d="M568 983c4.701 3.47 7.564 7.026 10.605 12.012 1.403 2.255 1.403 2.255 4.395 3.988l-.07-2.992-.055-3.883-.07-3.867C583 985 583 985 585 983c1 1 1 1 1.114 3.041l-.016 2.65-.01 2.862-.025 3.01-.014 3.021c-.012 2.472-.028 4.944-.049 7.416-4.189-.818-5.471-2.403-8.062-5.812l-2.036-2.645c-.627-.84-1.255-1.678-1.902-2.543l-1.746-2.2C571 990 571 990 571 988h-2v17c-3-2-3-2-3.372-3.848l.009-2.215.002-2.414.048-2.523-.01-2.523c.056-6.21.056-6.21 2.323-8.477ZM522 937l4 2v2h2a101.314 101.314 0 0 1 4 5.375c2.78 3.997 2.78 3.997 6 7.625v-17l3 2c.25 2.893.326 5.552.25 8.438l-.016 2.353c-.045 3.304-.184 6.058-1.234 9.209-5.396-1.38-7.378-4.734-10.312-9.125-.455-.659-.91-1.317-1.377-1.996A536.337 536.337 0 0 1 525 943l-1 16h-2c-1.166-2.332-1.13-3.722-1.133-6.316l-.004-2.565.012-2.682-.012-2.693.004-2.56.004-2.358C521 938 521 938 522 937ZM464 891c4.035 1.555 6.075 4.178 8.75 7.5l2.422 2.969C477 904 477 904 477 906h2l1 1v-15h3v21c-5.622-2.249-5.622-2.249-7.605-5.223-.427-.62-.853-1.241-1.291-1.88-.427-.647-.853-1.293-1.291-1.96-2.772-4.636-2.772-4.636-6.813-7.937v17l-3-2c-.356-1.848-.356-1.848-.328-4.062l.015-2.415.063-2.523.016-2.523c.08-6.168.08-6.168 1.234-8.477ZM864 984c1.875.285 1.875.285 4 1 2.95 5.07 5.016 10.414 7.07 15.898.85 2.262.85 2.262 2.93 4.102-2.169-.506-4-1-6-2l-1-3-11-1-2 6-2-1 1.438-3.187c1.263-2.929 1.969-5.676 2.562-8.813 1.063-2.312 1.063-2.312 2-4h2v-4ZM858 891c3.486 1.394 4.666 2.633 6.14 6.063.523 1.194.523 1.194 1.055 2.414L866.25 902l1.102 2.523C870 910.677 870 910.677 870 913h-2v-2h-2l-2-3c-2.195-.58-2.195-.58-4.625-.687l-2.477-.2L855 907l-4 6c-1-2-1-2-.441-4.164l.879-2.461.87-2.477L853 902h2l-1-3c1-3 1-3 3-5l1-3ZM620 983h2a3622.71 3622.71 0 0 1 4.5 9.875c.43.937.859 1.874 1.3 2.84l1.231 2.715 1.143 2.507C631 1003 631 1003 631 1005c-3-1-3-1-4.687-4.062L625 998l-1 1c-2.29.202-4.576.319-6.871.426-2.322.368-2.322.368-3.414 2.617L613 1004l-2-3h2l.438-3.375C614 994 614 994 615 992h2l-1-3c1.813-3.187 1.813-3.187 4-6ZM771 890c4.013.28 5.72.758 8.813 3.438 3.317 3.885 3.528 6.327 3.472 11.304-.426 3.372-1.82 4.998-4.285 7.258-2.724 2.066-3.953 2.003-7.437 1.813-3.587-.818-5.71-1.515-8.563-3.813-1.965-3.252-3-5.187-3-9h2v-5h2v-2c2.647-1.46 3.894-2 7-2v-2Zm-7 7c-1.75 3.501-.977 7.3 0 11 3.42 3.219 7.361 4 12 4 3.207-1.706 3.207-1.706 5-5 .58-4.875-.357-8.124-3.25-12.062-2.545-2.052-2.545-2.052-5.187-2.5-3.49.766-5.755 2.393-8.563 4.562ZM509.875 981.75 512 982l2 3-14 1v6c1.048.09 1.048.09 2.117.184l2.758.254c.905.08 1.81.162 2.742.246C510 993 510 993 512 994v2l-11 1-1 8c-3-2-3-2-3.372-3.848l.009-2.215.002-2.414.048-2.523-.01-2.523c.056-6.21.056-6.21 2.323-8.477 3.636-.596 7.209-.931 10.875-1.25ZM645 937l3 2c.385 3.23.485 6.345.527 9.59.06 1.81.259 3.612.473 5.41 3.445 2.296 5.938 2.54 10 3 2.47-3.816 2.438-7.847 2.625-12.25l.117-2.258c.094-1.83.177-3.661.258-5.492l3 2c1.092 6.454.279 12.379-3 18-1.75 2-1.75 2-4 3-5.294-.096-8.214-1.326-12-5-1.594-3.188-1.102-6.629-1.062-10.125l.013-2.285c.012-1.863.03-3.727.049-5.59ZM575.563 935.75l2.94-.078L581 936l2 3h-14l2 7 10 2v2l-11 1-1 7-3-1c-.114-6.766.12-13.288 1-20 3.066-1.022 5.348-1.199 8.563-1.25ZM650 891l2 1c.054 2.584.094 5.166.125 7.75l.05 2.21c.064 6.944.064 6.944-2.175 10.04-2.904 1.694-4.636 2.023-8 1.813-3.157-.856-5.377-1.865-8-3.813-1.206-3.619-1.108-6.925-1.062-10.687l.013-2.127c.012-1.729.03-3.458.049-5.186h2c1.48 2.962 1.353 5.835 1.563 9.125l.253 3.883L637 908c1.431.558 2.87 1.096 4.313 1.625l2.425.914L646 911l3-2c.195-2.926.234-5.647.125-8.562A330.11 330.11 0 0 1 649 892l1-1ZM692 891c2.527 2.19 4.5 4 6 7a56.54 56.54 0 0 1-7-4c-3.349-.356-5.328-.363-8.312 1.25-1.989 2.062-2.45 2.904-2.688 5.75.273 2.341.598 4.678 1 7 2.956 1.256 5.846 2.364 9 3 2.874-1.173 2.874-1.173 5-3h3c-2.205 3.482-3.982 4.972-8 6-4.407-.275-7.427-1.42-11-4-2.669-4.003-2.833-7.292-2-12 2.375-3.062 2.375-3.062 5-5h2v-2c3.01-1.505 4.794-.88 8 0ZM584 665l3 1v29h-3c-1.83-1.83-1.13-4.732-1.133-7.187l-.004-3.805.007-1.991c.005-2.009 0-4.017-.007-6.025l.004-3.804.004-3.52C583 666 583 666 584 665ZM793 938c1.938 1.5 1.938 1.5 3 3v2l-1.562-.937c-3.905-1.702-7.705-2.656-11.813-1.25-1.776 1.107-1.776 1.107-2.625 3.187-.07 1.874-.084 3.75-.062 5.625l.027 3.04L780 955c1.746.391 3.497.763 5.25 1.125l2.953.633c3.031.262 4.277-.138 6.797-1.758-1 3-1 3-2.625 4.25-4.366 1.379-8.13.331-12.187-1.562-2.419-1.866-3.3-2.78-4.188-5.688a97.595 97.595 0 0 1 0-7h2l.813-2.437L780 940l3-1v-2c4.002-1.334 6.08-.4 10 1ZM713.5 983.188c3.286 1.701 4.67 2.69 6.5 5.812-3 0-3 0-5.312-1.562-2.64-1.704-2.64-1.704-5.813-1.313-3.035.924-4.023 1.372-5.875 3.875-.363 2.742-.363 2.742-.187 5.688l.082 3.011L703 1001c1.746.391 3.497.763 5.25 1.125l2.953.633c3.031.262 4.277-.138 6.797-1.758-1.75 3.875-1.75 3.875-4 5-4.221.281-7.173-.199-11-2v-2h-2c-2.094-3.402-2.18-6.053-2-10h2l.188-2.375L702 987c2.563-1.312 2.563-1.312 5-2v-2c3-1 3-1 6.5.188Z"/><path fill="#F1EBE0" d="M593 893c1.603-.081 3.208-.14 4.813-.187l2.707-.106c2.48.293 2.48.293 4.261 1.637 1.575 2.14 1.867 4.05 2.219 6.656-3.14 1.876-5.079 2.183-8.687 1.688l-2.387-.301C594 902 594 902 593 901c-.141-2.67-.042-5.324 0-8ZM865 939c9.062-.46 9.062-.46 13 3 .813 2.688.813 2.688 1 5-3.315 2.03-5.432 2.127-9.25 1.625l-2.703-.336L865 948v-9Z"/><path fill="#060707" d="m729 889.688 3.813-.051L736 890l2 3-7 2v17l-4-1-1-17-6-2c2.873-2.873 5.003-2.3 9-2.312ZM557.938 889.688l3.777-.051C565 890 565 890 568 893h-9v19h-3l-1-18-6-2c2.863-2.863 4.952-2.3 8.938-2.312Z"/><path fill="#F1EBE0" d="M811 893c8.625-.25 8.625-.25 12 2 .688 3.125.688 3.125 1 6-3.452 2.301-4.235 2.138-8.187 1.625l-2.731-.336L811 902v-9Z"/><path fill="#ECE6DB" d="M817 986c3.708-.283 7.3-.44 11 0 2.313 2.25 2.313 2.25 3 5l-2 4-12-1v-8Z"/><path fill="#060707" d="M607 938h2l1 18 7.617-.293L620 956l2 3-1 1c-2.19-.09-4.378-.247-6.562-.437l-3.63-.31L608 959c-1.784-4.59-2.245-8.4-2.187-13.312l.019-3.739C606 939 606 939 607 938ZM514 890c4.457.262 6.515.577 9.938 3.563L526 896c-3 0-3 0-6-2-4.148-.287-4.148-.287-8 1v3l2.336.734 3.039 1.016 3.023.984c2.9 1.41 3.56 2.28 4.602 5.266l-2 2-2-3c-2.306-1.159-2.306-1.159-4.937-2.062-3.058-1.122-5.327-2.114-8.063-3.938.188-2.375.188-2.375 1-5 2.563-1.312 2.563-1.312 5-2v-2Z"/><path fill="#FAFCFB" d="M342 669c3.402 4.05 6 8.636 6 14h-11c.535-5.348 2.467-9.358 5-14Z"/><path fill="#FAFCFC" d="M1002 669c5 9.615 5 9.615 5 14h-10c-1-3-1-3-.04-5.445l1.415-2.68 1.398-2.695C1001 670 1001 670 1002 669Z"/><path fill="#FAFCFB" d="M704 669c3.383 2.256 3.787 3.31 5.188 7l1.042 2.688C711 681 711 681 711 683h-10c-1.1-4.403-.792-5.268.938-9.25l1.152-2.703L704 669Z"/><path fill="#FAFCFC" d="M871 670h2c.838 1.79 1.67 3.582 2.5 5.375l1.406 3.023C878 681 878 681 878 683h-11c.591-4.847 1.98-8.607 4-13Z"/><path fill="#FBFDFD" d="m777.96 995.867 2.415.008 2.398-.008C785 996 785 996 788 997l1 6h-13l-1-6c1-1 1-1 2.96-1.133Z"/><path fill="#F9FAF9" d="M925 904c1.604-.054 3.208-.093 4.813-.125l2.707-.07C935 904 935 904 938 906v2l1 3a782.016 782.016 0 0 1-6.937-.375l-3.903-.21L925 910c-1.245-2.49-.777-3.41 0-6Z"/><path fill="#060707" d="M538 984h2v21l-3-1c-.029-3.146-.047-6.292-.062-9.437l-.026-2.721-.01-2.588-.016-2.396C537 985 537 985 538 984ZM493 938h2v20l-3-1a2398.8 2398.8 0 0 1-.062-8.937l-.026-2.577-.01-2.45-.016-2.27C492 939 492 939 493 938Z"/><path fill="#FBFDFD" d="M693 950c4.161-.082 7.947.018 12 1l-3 2 5 2v2c-2.146-.14-4.292-.287-6.437-.437l-3.622-.247C694 956 694 956 693 955a99.984 99.984 0 0 1 0-5Z"/><path fill="#060707" d="M747 984v21l-3-1v-15h2v-2h-2v-2c2-1 2-1 3-1ZM435 891l2 1v21l-3-1c-.029-3.125-.047-6.25-.062-9.375l-.026-2.695-.01-2.578-.016-2.38C434 893 434 893 435 891ZM525 906c.688 1.813.688 1.813 1 4-1.14 1.613-1.14 1.613-3 3-2.559.398-2.559.398-5.437.375l-2.872.023c-3.09-.457-4.499-1.19-6.691-3.398v-3l1.68.965c2.585 1.153 4.63 1.4 7.445 1.597 4.68.34 4.68.34 6.875 1.438l1-5Z"/><path fill="#F1EBE0" d="M620 987c2.523 1.974 2.993 2.967 3.688 6.188L624 996c-3 2-3 2-7 2 .468-4.056.88-7.466 3-11ZM865 987c2 1 2 1 3.125 3.25.88 2.766 1.04 4.87.875 7.75h-3v-2h-2v2l-3-1 4-10ZM858 895h2l3 9h-7l2-9Z"/><path fill="#FBFDFD" d="M484 894c2 2 2 2 2.266 4.969l-.016 3.531.016 3.531C486 909 486 909 484 911c-.837-3.641-1.135-7.016-1.125-10.75l-.008-2.922C483 895 483 895 484 894Z"/><path fill="#FAFCFB" d="m777.96 995.867 2.415.008 2.398-.008C785 996 785 996 788 997v2l-12 1-1-3c1-1 1-1 2.96-1.133ZM826 959h9l1 3c-1.457.195-2.916.38-4.375.563l-2.46.316C827 963 827 963 825 962l1-3Z"/><path fill="#F9F9F7" d="m519.125 906.938 2.758.59L524 908l1-2-1 5-12-1v-3c2.722-1.361 4.183-.704 7.125-.062Z"/><path fill="#FAFBFB" d="M695 959h9l1 3c-2.52 1.26-3.854.919-6.625.563l-2.477-.31L694 962l1-3Z"/><path fill="#FAFCFC" d="M776 989c4.507-.177 7.966-.136 12 2l1 2-13-1v-3Z"/><path fill="#F9F9F7" d="M775 1005h11l1 3c-4.69 1.117-7.538.806-12-1v-2Z"/><path fill="#F2EEE5" d="M776 986h10l-1 3h-10l1-3Z"/><path fill="#FAFCFC" d="M925 908h13l1 3-14-1v-2Z"/><path fill="#FAFCFB" d="M693 954h13l1 3a675.252 675.252 0 0 1-6.437-.375c-1.195-.07-2.39-.14-3.622-.21-.97-.138-1.94-.274-2.941-.415l-1-2Z"/><path fill="#FBFDFD" d="M824 950c4.161-.082 7.947.018 12 1-3.204 2.136-4.02 2.231-7.687 2.125l-2.45-.055L824 953v-3ZM652 893l3 1v9l-2 1c-1.176-3.674-1.074-7.17-1-11Z"/></svg>