<svg xmlns="http://www.w3.org/2000/svg" width="1280" height="1280"><path fill="#F0F1ED" d="M0 0h1280v1280H0V0Z"/><path fill="#000302" d="m540 184 2.146.488c19.067 4.514 41.49 15.419 52.921 32.066 1.395 3.659 1.177 7.29 1.128 11.15l-.008 2.538c-.011 2.67-.037 5.339-.062 8.008-.01 1.812-.02 3.625-.027 5.438A3092.95 3092.95 0 0 1 596 257c-2.542-2.435-4.662-4.767-6.516-7.758l-1.34-2.13-1.394-2.237c-4.22-6.636-8.598-12.916-13.75-18.875l-2.07-2.437C553.435 203.497 533.458 191.3 507 187l-3.156-.562c-22.641-3.484-47.49 5.492-65.672 18.601A144.084 144.084 0 0 0 431 211l-1.816 1.566c-22.568 20.892-33.016 56.375-34.308 86.307-1.1 41.961 9.475 81.776 37.124 114.127l1.352 1.593c20.605 24.048 47.675 40.662 79.648 43.22 5.47.256 10.595.04 16-.813v-17l2-1 .988 2.738 1.324 3.575 1.301 3.55c1.554 3.624 1.554 3.624 4.387 6.137 2.07.148 2.07.148 4.188-.312L547 454v-2c3.75-1.125 3.75-1.125 6 0l1-2a75.5 75.5 0 0 1 4-2.75l2.473-1.621a476.36 476.36 0 0 1 4.773-3.04C579.863 433.237 588.641 420.97 597 406c-3.05-3.471-6.181-5.83-10.125-8.25-17.891-11.134-31.205-25.762-36.562-46.398-4.025-19.06-.11-36.74 10.335-52.903 2.498-3.468 4.89-5.93 8.352-8.449 2.053-1.842 2.053-1.842 3-4l1.75-.375c3.03-.842 4.838-2.646 7.25-4.625l3-1 2-2 3.063-.5L592 277l1-2c5.917-2.791 11.573-4.142 17.938-5.5l3.652-.781L618 268l2.284-.528c28.933-5.03 64.275 1.032 88.47 17.829L711 287l2.152 1.605c2.094 1.692 3.95 3.487 5.848 5.395l2.105 2.063c7.791 8.932 6.824 17.95 6.395 29.125-.04 1.828-.077 3.657-.11 5.486A757.59 757.59 0 0 1 727 344c-3.605-3.511-6.273-6.772-8.812-11.125-6.083-10.169-13.04-19.263-21.188-27.875l-2.336-2.531C680.344 287.453 662.162 278.264 642 274l-2.68-.578c-14.438-1.835-29.632-1.608-43.32 3.578l-2.926 1.098c-12.088 5.043-22.285 11.567-27.886 23.59-4.107 10.551-2.612 20.027 1.812 30.312 9.002 15.926 26.43 31.368 43 39v-6h1l-.07 3.637c.362 2.789.699 4.008 2.75 5.97 2.422 1.553 4.884 2.895 7.445 4.205l2.85 1.54c11.53 6.143 23.382 11.649 35.234 17.133 12.936 6 25.329 11.98 36.791 20.515l2.809 2.082C714.039 431.835 727.734 448.43 731 468c1.001 12.968 1.726 27.034-4 39l-1.367 2.977c-8.457 16.282-23.147 27.27-40.383 32.836-37.977 11.236-77.162 3.639-111.875-14.063-12.088-6.762-23.47-15.072-33.375-24.75l-2.531-2.45c-8.685-8.533-8.685-8.533-8.883-16.624l-.059-2.072c-.06-2.18-.106-4.36-.152-6.541l-.117-4.44c-.096-3.624-.18-7.248-.258-10.873l-2.133.208C506.064 463.013 486.268 463.36 467 458l-2.034-.551C442.842 451.275 422.848 438.362 406 423l-2.227-2.012c-24.843-23.606-38.811-59.024-39.898-92.883-.192-9.837.474-19.4 2.125-29.105l.358-2.127C368.59 284.235 372.834 272.717 378 261l1.5-3.437C385.227 245.328 393.691 234.7 403 225l2.48-2.672c11.513-12.04 24.435-20.43 39.52-27.328l2.832-1.309c2.045-.926 4.1-1.818 6.168-2.691l2.688-1.187c2.748-.966 5.437-1.353 8.312-1.813l3.75-1.125C472 186 472 186 474 187v-2c2.666-.482 5.333-.96 8-1.437l2.254-.409c18.58-3.312 37.31-3.417 55.746.846Z"/><path fill="#F0F1ED" d="M612.838 413.166c3.252.858 6.086 1.97 9.135 3.389l3.444 1.596 3.646 1.724 1.876.882C651.944 430.629 672.23 440.859 690 456l2.48 2.074c11.753 10.15 24.512 23.464 25.82 39.645.04 12.674.04 12.674-3.3 18.281l-1.562 2.875c-5.475 7.018-12.082 12.21-19.75 16.625l-1.777 1.025c-3.306 1.823-6.229 2.777-9.911 3.475l-1 2-3-1-1 2-2-1v2l-5-1v2c-42.99-.967-74.232-16.148-104.21-46.973-8.195-8.604-14.645-18.132-20.977-28.152l-1.788-2.805-1.63-2.64-1.474-2.368C539 460 539 460 540 457c1.616-.809 1.616-.809 3.734-1.437l2.398-.755 2.618-.808c18.948-6.272 36.294-15.641 50.227-30.062.67-.694 1.342-1.387 2.033-2.101a189.495 189.495 0 0 0 3.843-4.15l1.772-1.89 1.54-1.708C610 413 610 413 612.837 413.166ZM637.25 579.438c9.45 8.805 16.817 17.977 17.309 31.39.028 17.189.028 17.189-5.434 23.254-5.684 5.13-9.59 7.218-17.312 7.043l-2.272-.027c-1.847-.024-3.694-.06-5.541-.098v-2l-2-.562c-8.732-4.185-13.53-11.111-16.969-19.918-3.246-9.693-2.485-17.946.969-27.52 5.807-11.2 19.416-16.797 31.25-11.562Z"/><path fill="#020403" d="M674 576c4.556.556 4.556.556 6 2 .094 1.964.117 3.93.114 5.897v3.822l-.016 4.16a5747.432 5747.432 0 0 1-.029 15.394c-.01 3.794-.015 7.588-.02 11.381-.01 7.449-.029 14.897-.049 22.346h15v1c-3.646.029-7.292.047-10.937.063l-3.155.025-2.998.01-2.777.016C673 642 673 642 672 641c-.105-1.953-.139-3.91-.145-5.865l-.02-3.802-.003-4.142-.01-4.218a3966.6 3966.6 0 0 1-.007-8.855c0-3.788-.014-7.575-.031-11.363-.011-2.906-.013-5.811-.013-8.717a896.424 896.424 0 0 0-.013-4.19c-.01-1.951-.006-3.902 0-5.854l-.005-3.368C672 578 672 578 674 576Z"/><path fill="#000302" d="M603 704c1.384 2.769 1.12 5.004 1.114 8.102v3.882l-.016 4.211a5895.711 5895.711 0 0 1-.029 15.61c-.01 3.848-.015 7.695-.02 11.543-.01 7.55-.028 15.101-.049 22.652-2.875.125-2.875.125-6 0-2.683-2.683-2.259-4.028-2.275-7.78l-.029-3.67.003-3.984-.013-4.072c-.007-2.848-.007-5.695-.002-8.542.006-3.65-.01-7.3-.034-10.949-.015-2.804-.016-5.609-.013-8.413 0-2-.014-4-.028-6.001l.019-3.68-.002-3.246C596 707 596 707 597.273 705.131 599 704 599 704 603 704ZM558 705h2l.872 2.33c2.99 7.894 6.217 15.659 9.606 23.39 1.43 3.266 2.85 6.537 4.272 9.807l.847 1.947a2492.529 2492.529 0 0 1 7.216 16.713c.33.765.662 1.53 1.003 2.317C585.086 764.5 586 766.712 586 770c-2.75.313-2.75.313-6 0-3.074-3.248-4.815-6.455-6.402-10.605l-1.26-3.233-1.275-3.35c-2.699-7.027-5.478-13.873-8.927-20.568-1.604-3.168-2.96-6.402-4.323-9.682-1.437-3.453-2.737-6.448-4.813-9.562.783-1.339 1.577-2.67 2.375-4l1.336-2.25L558 705ZM819 577c2.35 2.133 3.645 4.012 4.882 6.926l1.023 2.381 1.08 2.576 1.147 2.69c1.213 2.848 2.415 5.7 3.618 8.552l2.383 5.598a2977.2 2977.2 0 0 1 5.769 13.662c.726 1.729 1.454 3.456 2.185 5.183 1.002 2.368 1.997 4.74 2.991 7.112l.904 2.125c1.207 2.903 2.018 5.017 2.018 8.195-2.75.313-2.75.313-6 0-3.231-3.373-4.874-6.698-6.437-11.062l-1.293-3.5L832 624c-2.996-7.57-6.305-15.005-9.625-22.437l-1.165-2.622c-1.867-4.152-3.859-8.038-6.21-11.941.235-3.648 2.328-6.802 4-10ZM491 577c3.306 2.204 3.711 3.068 5.172 6.617l1.243 2.979 1.335 3.279 1.407 3.394c1.038 2.502 2.071 5.006 3.101 7.51 1.914 4.649 3.857 9.285 5.8 13.92l4.13 9.864 1.028 2.457c.965 2.306 1.928 4.614 2.89 6.921l.888 2.121C520 640.885 520 640.885 520 642c-3.312.25-3.312.25-7 0-2.738-2.881-4.105-6.24-5.625-9.875l-.758-1.797a856.823 856.823 0 0 1-4.762-11.648c-3.855-9.56-7.768-18.957-12.543-28.098C488 588 488 588 487 585c.777-2.043.777-2.043 1.938-4.187l1.152-2.168L491 577ZM684 706c3 1 3 1 4.65 4.13a299.561 299.561 0 0 1 1.791 4.218l.983 2.29c1.057 2.47 2.098 4.947 3.139 7.424a3191.139 3191.139 0 0 1 7.465 17.627c.895 2.13 1.796 4.256 2.698 6.382 1.43 3.37 2.854 6.742 4.274 10.116l1.256 2.98 1.119 2.688.96 2.302C713 768 713 768 713 770c-2.75.313-2.75.313-6 0-4.633-4.405-6.496-10.562-8.812-16.375-2.86-7.03-5.73-14.025-9-20.875-2.112-4.459-4.208-8.918-6.188-13.437l-1.25-2.825c-1.249-4.143.281-6.813 2.25-10.488ZM532 576c2.563.25 2.563.25 5 1 1.536 3.071 1.123 6.28 1.094 9.648l-.011 2.398c-.069 10.528-.331 21.054-.583 31.579l-.145 6.258c-.116 5.039-.235 10.078-.355 15.117h-6c-1.356-2.713-1.135-4.85-1.145-7.887l-.02-3.741-.003-4.06-.01-4.147c-.006-2.898-.008-5.797-.007-8.695 0-3.72-.014-7.439-.031-11.158-.011-2.855-.013-5.71-.013-8.565a864.183 864.183 0 0 0-.013-4.115c-.01-1.915-.006-3.83 0-5.745l-.005-3.306C530 578 530 578 532 576ZM745 577v65h-5c-2-2-2-2-2.24-4.632l.013-3.378v-3.822l.032-4.145.008-4.228c.008-3.713.028-7.425.05-11.137.02-3.787.03-7.574.04-11.361.02-7.432.055-14.865.097-22.297 2-1 2-1 7 0ZM779 576a99.984 99.984 0 0 1 5 0c1 1 1 1 1.12 3.588l-.006 3.492v3.944l-.016 4.292-.005 4.368c-.003 3.839-.013 7.677-.024 11.516-.01 3.915-.015 7.829-.02 11.743-.01 7.686-.028 15.371-.049 23.057-2.375.125-2.375.125-5 0-3.726-3.726-2.961-9.792-3.05-14.845.013-3.062.067-6.121.136-9.182l.064-3.366c.046-2.329.095-4.658.147-6.986.078-3.572.145-7.144.21-10.717l.141-6.806.06-3.239.07-2.995c.02-.87.038-1.739.057-2.634C778 579 778 579 779 576ZM722 576a99.984 99.984 0 0 1 5 0c1 1 1 1 1.12 3.588l-.006 3.492v3.944l-.016 4.292-.005 4.368c-.003 3.839-.013 7.677-.024 11.516-.01 3.915-.015 7.829-.02 11.743-.01 7.686-.028 15.371-.049 23.057-2.375.125-2.375.125-5 0-2-2-2-2-2.247-4.536l.004-3.243-.01-3.671.023-3.984v-4.072c.002-2.848.01-5.695.024-8.542.017-3.65.021-7.3.02-10.949 0-2.804.006-5.609.013-8.413.005-2 .007-4 .008-6.001l.02-3.68.011-3.246C721 579 721 579 722 576Z"/><path fill="#010403" d="m484 712 2 1-.875 2.063c-.403 3.146-.403 3.146 1.813 6.187 5.39 5.794 13.158 9.086 20.062 12.75 7.766 4.131 14.1 8.3 17 17 .433 5.632-.575 9.048-3 14l-1-2c.938-2.625.938-2.625 2-5h-2c-1.008-1.54-1.008-1.54-2.125-3.625-4.786-7.839-12.389-11.236-20.285-15.337-12.868-6.776-12.868-6.776-15.844-12.413-.83-2.922-.77-4.94-.371-7.937l.336-2.676L482 714h2v-2Z"/><path fill="#000302" d="M729 714h2l1.063 3.125c4.2 9.663 16.097 14.591 25.125 18.688 5.916 2.882 9.486 6.536 12.812 12.187 1.42 4.258 1.727 8.23 0 12.438L769 762l-.805-2.219c-3.702-8.613-9.833-13.481-17.903-17.667-17.664-9.172-17.664-9.172-21.792-15.364-.783-4.308-.119-8.443.5-12.75Z"/><path fill="#020504" d="m613 581 2 1-2.75 1.875c-5.808 4.806-7.628 12.904-8.488 20.125-.355 9.552 2.583 19.07 8.73 26.422 2.842 2.974 5.769 5.15 9.32 7.203L624 639v2h16v1c-2.834.082-5.665.14-8.5.188l-2.398.076c-10.635.13-18.176-4.344-26.102-11.264-6.009-6.965-7.504-15.126-7.316-24.121.831-7.566 3.34-14.014 9.316-18.879 1.252-1.082 2.502-2.165 3.75-3.25l1.797-1.516c1.408-1.162 1.408-1.162 2.453-2.234ZM649.633 582.664c7.902 7.797 11.588 16.514 11.742 27.461.047 10.772-3.613 17.325-10.629 25.379-1.921 1.646-3.273 2.1-5.746 2.496l2.313-2.375c6.544-8.07 6.985-19.302 6.083-29.292-1.59-9.352-7.62-19.816-15.396-25.333-3.365-2.089-6.327-2.37-10.25-2.625l-3.266-.227L622 578v-1c10.344-1.696 19.079-.813 27.633 5.664Z"/><path fill="#030605" d="m416 581 2 1-2.75 1.938c-5.169 4.288-7.206 10.59-8.25 17.062-.97 10.965 1.051 21.57 8.164 30.254 3.492 3.321 7.584 5.537 11.836 7.746l1.977 1.035c1.33.678 2.674 1.326 4.023 1.965-5.114 1.678-9.168-.034-14-2-9.094-4.664-15.495-10.013-18.875-19.812-2.655-10.494-1.294-19.611 3.875-29.188 2.012-1.715 2.012-1.715 4-3l2.563-2.562C413 583 413 583 416 581Z"/><path fill="#010403" d="M625 706c7.505.6 11.616 3.325 16.625 8.75 7.823 9.276 9.312 18.28 8.375 30.25-2.04 7.872-7.266 15.145-13.687 20.063L633 767l-3-1 2.938-1.687c3.225-1.952 3.225-1.952 3.75-4.75L637 757c.987-1.674 1.988-3.34 3-5 4.044-9.66 3.539-19.254 0-29-3.704-7.15-7.434-12.848-15-16v-1Z"/><path fill="#F1F2EE" d="M695 905c4.35 5.381 4.691 10.237 4 17-.698 3.785-.698 3.785-2.75 5.25-2.537.846-4.592.898-7.25.75v-2l-2.312-.687c-3.4-1.661-4.247-2.825-5.688-6.313-.45-3.538-.311-6.848.625-10.312 3.557-4.366 8.187-5.718 13.375-3.688ZM824 1058c2.869 2.231 4.849 4.547 6 8 .323 5.005.465 9.499-2 14-3.625 1.375-3.625 1.375-7 2v-2l-2.25-.187c-3.825-1.13-4.823-2.317-6.75-5.813-.808-4.969-.782-8.723 1.875-13.062 3.385-3.087 5.573-3.393 10.125-2.938Z"/><path fill="#000302" d="M718 1005c2.082-.108 4.166-.186 6.25-.25l3.516-.14c3.234.39 3.234.39 5.601 2.285 1.712 2.207 2.465 3.328 2.633 6.105-.937 2.75-.937 2.75-2 5h-2c2.036 6.226 2.036 6.226 5 12 2.05.805 2.05.805 4 1-3.349.383-4.745.164-7.625-1.687-2.375-2.313-2.375-2.313-3.875-5-1.315-2.573-1.315-2.573-4.187-3.126L723 1021c.582 5.309.582 5.309 3 10h-7c0-2.352.014-4.703.035-7.055l.028-4.82.025-2.434c.017-4.036-.075-7.752-1.088-11.691Z"/><path fill="#060908" d="M490 1056c1.77-.027 3.542-.046 5.313-.062l2.988-.036C501 1056 501 1056 504 1057c2.04 2.624 3.043 4.138 2.875 7.5-.97 2.77-2.266 5.052-3.875 7.5l1.938 2.813C507 1078 507 1078 508 1081l2 1c-6.718-1.622-6.718-1.622-9.187-4.937C499 1074 499 1074 499 1072l-4 1v8l2 1h-7c0-2.499.085-4.955.219-7.45l.136-2.568.145-2.67.145-2.705c.117-2.202.236-4.405.355-6.607h-2l1-4Z"/><path fill="#010403" d="M755 954c2.249-.108 4.5-.186 6.75-.25l3.797-.14c3.453.39 3.453.39 5.883 2.18 2.236 3.148 1.988 5.445 1.57 9.21l-2 2c.27 4.22.918 6.186 4 9v3l3 1c-4.864-.417-6.83-2.412-10-6l-1.562-2.25c-1.71-2.08-2.816-2.388-5.438-2.75l.438 3.813.246 2.144c.288 2.237.288 2.237 1.316 5.043h-7v-3h2c-.11-3.084-.24-6.167-.375-9.25-.03-.873-.062-1.745-.094-2.645l-.117-2.558-.095-2.349c-.35-2.407-1.125-4.094-2.319-6.198Z"/><path fill="#0C0F0E" d="M490 954c2.652-.355 2.652-.355 6 0 2.145 1.865 3.784 3.523 5.563 5.688a2085.21 2085.21 0 0 0 2.753 3.199l1.337 1.575c2.01 2.294 4.164 4.41 6.347 6.538.027-2.083.046-4.167.063-6.25l.035-3.516c-.08-2.644-.312-4.732-1.098-7.234l7 1-.974 1.688c-1.148 2.586-1.337 4.478-1.44 7.296l-.117 2.832-.094 2.934-.117 2.98c-.094 2.423-.18 4.846-.258 7.27-5.113-3.039-8.51-6.598-12.25-11.187-3.374-4.498-3.374-4.498-7.75-7.813.114 2.418.241 4.833.375 7.25.03.682.062 1.364.094 2.066.214 3.671.542 6.547 2.531 9.684h-6l-1-3h2c-.11-3.084-.24-6.167-.375-9.25-.03-.873-.062-1.745-.094-2.645l-.117-2.558-.095-2.349c-.35-2.407-1.125-4.094-2.319-6.198Z"/><path fill="#010403" d="M740 1056c3.739.125 4.988.989 7.754 3.582a201.945 201.945 0 0 1 2.808 3.23c.939 1.07 1.877 2.14 2.817 3.208L756 1069a233.423 233.423 0 0 0 4 4c.027-2.083.046-4.167.063-6.25l.035-3.516c-.08-2.644-.312-4.732-1.098-7.234l7 1-.437 1.617c-1.281 5.141-1.69 9.785-1.567 15.074.005 2.847-.41 5.527-.996 8.309-5.136-3.054-8.594-6.657-12.375-11.25l-1.652-1.969A874.466 874.466 0 0 1 745 1064c-.027 2.625-.047 5.25-.062 7.875l-.026 2.262c-.119 4.061-.119 4.061 1.088 7.863h-6c0-3 0-3 1-6h2c-.088-2.23-.196-4.459-.312-6.687l-.176-3.762c-.521-3.614-1.414-5.609-3.512-8.551l1-1Z"/><path fill="#0A0C0B" d="M652 954c2.715-.29 2.715-.29 6 0 2.379 1.977 2.379 1.977 4.563 4.625l2.32 2.754L667 964c3.041 4.041 3.041 4.041 7 7 1.28-6.66.811-10.815-2-17l8 1-2 1-1 24c-4.664-3.11-7.607-5.409-11.25-9.437l-2.578-2.81c-2.028-2.57-3.163-4.663-4.172-7.753h-2l1 19 2 1h-6l-1-3h2c-.11-3.084-.24-6.167-.375-9.25-.03-.873-.062-1.745-.094-2.645l-.117-2.558-.095-2.349c-.35-2.407-1.125-4.094-2.319-6.198Z"/><path fill="#0B0D0C" d="M595 1005c2.121-.39 2.121-.39 5 0 2.32 1.817 4.158 4.012 6.063 6.25 1.031 1.172 2.064 2.344 3.097 3.516l1.465 1.685c1.714 1.931 3.521 3.753 5.375 5.549.027-2.083.046-4.167.063-6.25l.035-3.516c-.08-2.644-.312-4.732-1.098-7.234l8 1-1.457 1.855c-2.182 4.448-2.11 8.564-2.23 13.457l-.104 2.823A639.983 639.983 0 0 0 619 1031c-5.136-3.054-8.594-6.657-12.375-11.25l-1.652-1.969A874.466 874.466 0 0 1 601 1013c-.027 2.625-.047 5.25-.062 7.875l-.026 2.262c-.119 4.061-.119 4.061 1.088 7.863h-6c0-2.84.403-5.237 1-8h2v-11l-2-1a101.168 101.168 0 0 1-2-6Z"/><path fill="#000302" d="M560 608c4.21 1.515 5.632 4.12 7.875 7.875l1.046 1.74c2.828 4.777 5.308 9.7 7.657 14.729 1.526 2.85 3.371 5.167 5.422 7.656v1c-5.811-.204-9.28-1.076-13.531-5.145-4.332-5.472-4.825-12.713-5.93-19.39-.638-2.916-1.737-5.09-3.539-7.465l1-1Z"/><path fill="#0C0F0E" d="M447 903c2.613-.43 2.613-.43 6 0 2.439 1.986 4.272 4.393 6.188 6.875a994.168 994.168 0 0 0 3.105 3.867l1.36 1.746c1.466 1.774 1.466 1.774 4.347 3.512l1-4h2v-8l-4-2v-2l7 1-1 2c-.209 2.94-.375 5.868-.5 8.813-.42 9.751-.42 9.751-1.5 14.187-4.933-2.767-7.846-6.045-11.191-10.586-2.164-2.887-4.5-5.642-6.809-8.414l-1 17 2 1h-6l-1-2 2-1c1.149-3.447 1.204-6.244 1.25-9.875l.078-3.68c-.348-3.652-1.203-5.504-3.328-8.445Z"/><path fill="#030605" d="M551 1056c2.617-.422 2.617-.422 6 0 2.42 1.942 4.23 4.307 6.125 6.75 1.022 1.267 2.046 2.532 3.07 3.797l1.447 1.818c1.46 1.812 1.46 1.812 3.725 3.963C573 1074 573 1074 573 1076h2v-15l-3-1c-.687-2.062-.687-2.062-1-4 2.375-.187 2.375-.187 5 0l2 3-1 2a90.83 90.83 0 0 0-.316 4.79l-.127 2.85-.12 2.985-.13 3.008c-.107 2.455-.209 4.911-.307 7.367-5.324-1.427-7.837-4.841-11.187-8.937l-1.616-1.92c-2.219-2.655-4.274-5.26-6.197-8.143-1.088 9.038-1.088 9.038 0 18l2 1h-7l-1-2 2-1c1.439-6.62 2.155-14.535 0-21h-2v-2Z"/><path fill="#050807" d="M590 1056c15.677-.587 15.677-.587 21 3 2.596 2.801 3.866 5.427 4.191 9.246-.32 5.76-2.103 8.766-6.191 12.754-3.31 1.655-6.991 1.1-10.625 1.063l-2.43-.014c-1.981-.012-3.963-.03-5.945-.049l-1-2 2-1c.027-2.896.047-5.792.063-8.687l.025-2.475c.016-4.083-.058-7.855-1.088-11.838Zm5 4c-.446 3.147-.324 6.325-.312 9.5l-.05 2.668-.001 2.55-.01 2.343L595 1079c4.016 2.677 7.282 2.8 12 2 2.816-2.129 3.754-3.615 4.371-7.09.324-5.75-.98-9.295-4.371-13.91-3.7-2.837-8.615-3.385-12 0Z"/><path fill="#030504" d="M571 1005c2.563.982 3.762 1.556 5.08 4.015l.807 2.45.904 2.674.896 2.798.932 2.788A815.509 815.509 0 0 1 582 1027l1 3 2 1h-8v-3a168.166 168.166 0 0 0-2-6l-8-1-2 9 2 1h-7v-3h2l.375-2.437L563 1023l2-1c.658-3.03.658-3.03 1-6h2l.402-2.152.535-2.785.528-2.778C570 1006 570 1006 571 1005Z"/><path fill="#020504" d="M761 1005h2c2.82 5.94 5.036 11.92 6.973 18.203 1.05 2.858 2.382 5.243 4.027 7.797h-7l-.437-2.25c-.463-2.263-1.003-4.51-1.563-6.75l-9-1-.625 3.875-.352 2.18L755 1029l2 2h-8l3-6h2l.367-1.863.508-2.45.492-2.425C756 1016 756 1016 758 1013c.683-2.329 1.35-4.662 2-7l1-1Z"/><path fill="#080B0A" d="M686 1005c2.605-.108 5.206-.187 7.813-.25l2.236-.102c2.158-.039 2.158-.039 5.951.352 2.012 2.016 2.012 2.016 3 4l-1 2-1.5-1.437c-3.495-2.185-6.41-2.222-10.5-2.563l1 8 3.438-.062C700 1015 700 1015 701 1016c.04 1.666.043 3.334 0 5l-1-2h-7v10l13-2-2 4h-17c0-2.437.015-4.872.035-7.309l.028-5.129.025-2.603.01-2.518.016-2.29c-.115-2.171-.516-4.066-1.114-6.151Z"/><path fill="#020504" d="M553 576c12.893 3.53 12.893 3.53 16.813 8.125 1.672 4.048 1.86 7.557 1.187 11.875-1.562 3.25-1.562 3.25-4 6l-1.332 1.512c-3.043 2.811-5.034 3.473-9.234 3.574A152.211 152.211 0 0 1 546 606v-3l2 1c2.04.07 4.083.084 6.125.063l3.32-.028L560 604l.434-1.89c.566-2.11.566-2.11 1.629-3.86 1.687-4.05 1.68-8.12.25-12.219-2.245-4.414-4.767-6.274-9.313-8.031v-2Z"/><path fill="#050807" d="M694.844 902.457c3.028.763 4.358 2.026 6.156 4.543 2.658 4.533 2.664 8.867 2 14-1.607 3.214-2.943 5.17-5.75 7.375-4.439 1.233-8.22 1.455-12.477-.285-3.46-1.956-5.417-3.435-7.336-6.965-.714-5.1-.308-8.819 2.563-13.125 5.27-4.46 7.985-6.49 14.844-5.543ZM683 907c-2.423 2.973-2.362 6.275-2.25 10.035.377 2.963 1.322 4.705 3.25 6.965 2.571 1.347 2.571 1.347 5 2v2c4.646-.485 4.646-.485 9-2 1.737-5.054 1.92-11.08.316-16.172-1.583-3.18-2.874-4.655-6.191-5.953-3.82.153-5.941 1.027-9.125 3.125Z"/><path fill="#010403" d="M817 1056c8.986-.457 8.986-.457 13 3 3.403 4.783 4.857 7.998 4 14-1.54 4.409-3.283 6.567-7.312 9-4.804 1.303-8.185 1.341-12.649-1.05-4.753-3.134-4.753-3.134-5.723-5.903-.794-5.142-.597-9.343 1.684-14.047h2l1.5-1.5 1.5-1.5h2v-2Zm-4 6c-1.865 3.73-1.559 7.939-1 12 1.363 2.78 2.584 3.914 5 6h4l1 2c3.527-1.13 3.527-1.13 7-3 1.113-2.222 1.113-2.222 1-5l.313-3.875c-.044-4.63-1.7-7.358-4.313-11.125-5.298-2.65-9.008-.877-13 3Z"/><path fill="#000302" d="M715 903c2.439-.108 4.873-.187 7.313-.25l2.091-.102c5.112-.098 5.112-.098 7.557 2.176 1.387 2.904 1.377 4.996 1.039 8.176l-2 3h-2c2.344 5.277 4.67 9.15 9 13-4.424-.506-6.78-1.95-10-5a197.599 197.599 0 0 1-3-5l-3-2 7-3-1-7-7-2v22l2 1h-6c0-1.637.005-3.274.035-4.91.085-6.713.103-13.677-2.035-20.09ZM544 903c2.27-.108 4.541-.186 6.813-.25l3.832-.14c3.355.39 3.355.39 5.285 2.18 1.538 3.176 1.392 5.736 1.07 9.21l-2 2c.295 5.318 3.329 9.329 7 13-3.5-.3-4.949-.957-7.687-3.25C556 923 556 923 554.938 920.25L554 918l-4-1 8-3-2-9-6 1c-.029 3.104-.047 6.208-.062 9.313l-.026 2.67-.01 2.568-.016 2.364c.033 2.281.033 2.281 1.114 5.085h-6c0-2.364.014-4.726.035-7.09l.028-4.847.025-2.46.01-2.38.016-2.164c-.118-2.133-.53-4.009-1.114-6.059Z"/><path fill="#050807" d="M710 1056h15l1 5-1-2c-1.48-.027-2.958-.046-4.437-.062l-2.497-.036c-2.058-.135-2.058-.135-3.066 1.098-.04 2-.043 4 0 6 4.615 1.042 4.615 1.042 9 0v7l-2-2c-3.023-.74-3.023-.74-6-1-1.404 1.177-1.404 1.177-1.125 4.5-.28 3.323-.28 3.323 1.125 4.5 1.642.125 3.29.176 4.938.188l2.714.042c2.54.002 2.54.002 4.348-2.23l-1 5h-18l1-3c.146-1.48.247-2.964.316-4.45l.127-2.568.12-2.67.13-2.705c.106-2.202.208-4.404.307-6.607h-2l1-4Z"/><path fill="#020504" d="m585 954 9 1-2 1v19l5 2 5 2 1-2 3-2c.339-1.887.339-1.887.11-4.027l-.153-2.4-.207-2.51-.16-2.499c-.24-3.423-.498-6.29-1.59-9.564l7 1-1 2c-.281 3.732-.447 7.464-.621 11.203-.361 3.619-.927 6.47-2.379 9.797-4.26 2.84-8.003 2.51-13 2-3.062-1.187-3.062-1.187-5-3-1.399-5.117-1.357-10.453-1.621-15.723-.219-3.526-.219-3.526-2.379-7.277Z"/><path fill="#010403" d="M622 954h17l2 5h-2v-2l-11-1 .375 3.938c.07.73.14 1.461.21 2.214L629 964c2.667 1.333 4.167.671 7 0l1 5-9-2 1 12h7v-2l6-1-2 4h-17l.035-4.672.028-6.078.025-3.078.01-2.969.016-2.73c-.045-2.76-.045-2.76-1.114-6.473Z"/><path fill="#040706" d="M390.379 1055.902c1.394.007 2.789.019 4.183.035l2.155.014c1.76.012 3.522.03 5.283.049 1.063 1.813 1.063 1.813 2 4l-1 3-1-4c-1.48-.027-2.958-.046-4.437-.062l-2.497-.036c-2.058-.135-2.058-.135-3.066 1.098-.04 2-.043 4 0 6l3.375.375C399 1067 399 1067 401 1069l-1 3-2.875-1c-2.896-1.102-2.896-1.102-5.125-1v9c1.791.054 3.583.093 5.375.125l3.023.07c2.765.077 2.765.077 4.602-2.195l-1 5h-18l1-3c.091-1.36.13-2.726.133-4.09l.004-2.377-.012-2.47.012-2.46-.004-2.38-.004-2.164c-.066-2.104-.066-2.104-.7-4.26L386 1057c1-1 1-1 4.379-1.098Z"/><path fill="#030605" d="M800 903h17l1 5-2-2c-2.433-.462-2.433-.462-5.125-.625L806 905v10l4.438-.375c.823-.07 1.647-.14 2.496-.21L815 914l1-2-1 5-9-1-1 9c1.935.249 3.873.474 5.813.688l3.269.386c2.935.216 2.935.216 4.805-1.554.55-.753.55-.753 1.113-1.52l-1 5c-6.52 1.58-11.711 1.238-18-1l.016-1.88c.02-2.81.034-5.622.047-8.433l.025-2.958.01-2.842.016-2.619c-.02-2.435-.02-2.435-1.114-5.268Z"/><path fill="#000302" d="M522 1005c2.71-.324 2.71-.324 6 0 2.414 2.23 2.414 2.23 4.625 5.188l2.227 2.917L537 1016c2.18 2.844 3.813 4.869 6.75 6.938 2.25 2.062 2.25 2.062 2.563 5.312L546 1031c-5.682-3.06-9.083-7.51-13.047-12.54-1.876-2.459-1.876-2.459-3.953-4.46v-3h-2c.14 2.959.287 5.917.438 8.875l.119 2.55.127 2.442.11 2.254c.106 1.968.106 1.968 1.206 3.879h-6c0-2.84.403-5.237 1-8h2c-.346-9.468-.346-9.468-4-18Z"/><path fill="#010403" d="M724 954h17l2 5-3-2c-2.509-.456-2.509-.456-5.187-.625l-2.731-.227L730 956l1 9c4.646-.485 4.646-.485 9-2v6l-3.937-.562c-2.149-.336-2.149-.336-4.063-.438-1.397 1.17-1.397 1.17-1.125 4.438-.128 3.403-.128 3.403 1.125 5.562 2.322.407 4.657.744 7 1v-2h3l2-2c-.875 3.875-.875 3.875-2 5-2.863.073-5.7.092-8.562.063l-2.444-.014c-1.998-.012-3.996-.03-5.994-.049l1-3c.226-3.142.185-6.288.188-9.437l.037-2.604.005-2.518.013-2.29c-.165-2.569-.165-2.569-2.243-6.151Z"/><path fill="#040706" d="m530 1055.813 3.813-.043C537 1056 537 1056 539 1058l-1 3v-2h-10l-1 9 3-1v2h-3c-.027 1.48-.046 2.958-.062 4.438l-.036 2.496c-.135 2.058-.135 2.058 1.098 3.066 1.81.125 3.624.176 5.438.188l2.996.042c2.732.032 2.732.032 4.566-2.23-.875 3.875-.875 3.875-2 5-1.343.086-2.69.107-4.035.098l-2.451-.01-2.577-.025-2.587-.014c-2.117-.012-4.233-.03-6.35-.049v-2h2c-.139-3.271-.287-6.542-.437-9.812l-.12-2.815-.127-2.705-.11-2.491c-.14-2.356-.14-2.356-1.206-5.177 2.97-1.485 5.698-1.17 9-1.187Z"/><path fill="#030605" d="m576 903 8 1-1 2a156.81 156.81 0 0 0-.375 8.438l-.113 2.353c-.095 2.555-.095 2.555.488 6.209 2.4 1.97 2.4 1.97 5 3v2l3.375-1.25 1.898-.703c2.34-1.42 2.829-2.457 3.727-5.047.289-2.408.49-4.828.625-7.25l.227-3.828L598 907l-3-1v-3l7 1-2 1-.148 3.543-.227 4.644-.094 2.33c-.216 4.195-.546 7.688-2.531 11.483-2.975 2.403-6.293 2.37-10.035 2.238-3.105-.376-4.679-1.086-6.965-3.238-2.06-5.666-2.378-11.372-2.754-17.363-.155-2.743-.155-2.743-1.246-5.637Z"/><path fill="#000302" d="m462.617 1055.867 3.258.008 3.242-.008C472 1056 472 1056 475 1057c2.444 3.666 2.832 6.739 2 11-2.125 2.5-2.125 2.5-5 4-3.312.25-3.312.25-6 0v-1l3.438-.875L473 1069c1.316-2.158 1.316-2.158.5-5.5l-1.5-3.5c-3.514-1.54-3.514-1.54-7-2l.254 2.45.308 3.237.317 3.2c.114 2.943-.306 5.25-.879 8.113.864 3.736.864 3.736 2 7h-7l-1-2 2-1c.054-2.917.094-5.833.125-8.75l.05-2.5.02-2.422.032-2.222c-.26-2.405-1.035-4.019-2.227-6.106 1-1 1-1 3.617-1.133Z"/><path fill="#020504" d="M418 1056h5l.794 1.513c1.192 2.267 2.387 4.533 3.581 6.8l1.25 2.38c.4.758.8 1.515 1.21 2.295l1.112 2.11c.933 1.685 1.985 3.3 3.053 4.902l2-2c-.613 2.962-1.254 4.38-3 7-1.797-.555-1.797-.555-4-2a68.051 68.051 0 0 1-3.25-7.125L423 1065l-1 16 2 1h-7l-1-2 2-1c.656-2.527.656-2.527 1-5h2c-.115-1.75-.242-3.5-.375-5.25l-.21-2.953c-.404-2.722-1.153-4.395-2.415-6.797v-3Z"/><path fill="#000302" d="M758 903c2.491.974 3.751 1.563 5.097 3.924l.825 2.322.918 2.537.91 2.654.957 2.643C769 923.537 769 923.537 769 927l2 1h-7l-1-2h2c-1.182-3.673-1.182-3.673-3-7-3.084-1.057-3.084-1.057-6-1l4-2-1-7c-1.875 2.812-2.96 5.224-4.125 8.375l-1.07 2.836c-.795 2.755-.96 4.941-.805 7.789h-5c0-3 0-3 2-6h2l1-9h2v-5h2l1-5Z"/><path fill="#050706" d="M474 1005c2.625-.054 5.25-.094 7.875-.125l2.262-.05c1.955-.018 3.91.072 5.863.175l2 2-1 3-3-2c-3.584-.25-3.584-.25-7 0-1.416 1.184-1.416 1.184-1.062 4.563L480 1016h9v4l-3.937-.562c-2.149-.336-2.149-.336-4.063-.438-1.88 1.88-1.124 4.499-1.133 6.992.062 2.216.062 2.216 1.133 5.008h-6c0-2.437.015-4.872.035-7.309.01-1.71.019-3.419.027-5.129l.026-2.603.01-2.518.016-2.29c-.115-2.171-.516-4.066-1.114-6.151Z"/><path fill="#020504" d="M528 954c2.792-.027 5.583-.047 8.375-.062l2.406-.026c5.992-.025 5.992-.025 8.219 1.088l-1 4v-2l-11-1v9l3.938-.562c2.214-.317 2.214-.317 4.062-.438 1 1 1 1 1.063 3.563L544 970l-1-2c-2.126-.467-2.126-.467-4.562-.625l-2.504-.227L534 967c.115 1.418.243 2.834.375 4.25.07.789.14 1.578.21 2.39.43 2.446 1.201 4.208 2.415 6.36h-7l-1-3h2c-.11-3.084-.24-6.167-.375-9.25-.03-.873-.062-1.745-.094-2.645l-.117-2.558-.095-2.349c-.35-2.407-1.125-4.094-2.319-6.198Z"/><path fill="#000302" d="M653 1005c2.125 4.625 2.125 4.625 1 8l-.312-1.937L653 1009c-4.581-1.527-8.406-1.693-12.875.25-2.18 1.538-2.18 1.538-2.937 3.5L637 1015l-.312 3.438c.371 4.238 1.25 5.665 4.312 8.562 2.618 1.333 2.618 1.333 5 2v2h2v-2l2.375-.375c2.766-.416 2.766-.416 4.625-2.625-.187 1.875-.187 1.875-1 4-3.794 2.49-7.466 2.174-11.781 1.52-3.626-.85-5.572-1.873-8.219-4.52-2.028-4.897-2.547-9.437-.875-14.5 1.875-3.5 1.875-3.5 3.563-4.875L639 1007l1.824-.547c4.14-1.167 7.845-1.67 12.176-1.453Z"/><path fill="#010403" d="M477 746a181.617 181.617 0 0 1 3.688 5.75c4.372 6.145 9.217 10.543 15.808 14.207L498 767v2h7v1c-11.016.816-19.625-4.131-28-11-1.25-2.501-1.133-4.274-1.125-7.062l-.008-2.723C476 747 476 747 477 746Z"/><path fill="#030605" d="M512 903c3.48-.029 6.958-.047 10.438-.062l3.01-.026 2.86-.01 2.65-.016C533 903 533 903 534 904c.04 1.666.043 3.334 0 5l-1-4h-8v22l2 1h-6c-1.2-2.4-1.115-3.894-1.098-6.57l.01-2.715.025-2.84.014-2.863c.012-2.338.028-4.675.049-7.012-2.416-.167-2.416-.167-5 0l-2 2-1-5Z"/><path fill="#000302" d="M778 1056c2.959-.054 5.916-.094 8.875-.125l2.55-.05 2.442-.02 2.254-.032C796 1056 796 1056 798 1058c-.375 2.125-.375 2.125-1 4v-3l-8-1c-.058 3.25-.094 6.5-.125 9.75-.017.92-.034 1.84-.05 2.79l-.02 2.694-.032 2.476c.249 2.509.97 4.124 2.227 6.29h-7c0-2.57.088-5.102.219-7.668l.136-2.705.145-2.814.145-2.85c.117-2.321.236-4.642.355-6.963h-7v2l-2-1 2-4ZM557 954c2.875-.125 2.875-.125 6 0l2 2-1 1c-1.23 6.149-2.852 15.297 0 21 3.03.658 3.03.658 6 1v-2l5-1-1 4h-16l.035-4.672.028-6.078.025-3.078.01-2.969.016-2.73c-.106-2.307-.463-4.264-1.114-6.473Z"/><path fill="#010403" d="m489 905 2 1-2 5 2.688.813c4.644 1.664 7.55 3.043 10.312 7.187.367 2.86.172 4.587-.937 7.25-3.285 2.787-6.857 2.809-11.063 2.75-3-.625-3-.625-5-2-.812-2.625-.812-2.625-1-5l3 1v2l4 1v2c3.488-.77 3.488-.77 7-2l1-3c-2.92-3.194-5.506-5.355-9.312-7.437-2.07-1.235-2.07-1.235-3.688-2.563-.687-3.187-.687-3.187 0-6l3-2ZM724 746c2 2 2 2 3.313 4.813 3.36 6.347 9.415 11.267 15.562 14.875L745 767v2c-4.472-.54-7.712-1.66-11.625-3.875l-2.79-1.555c-4.648-2.823-4.648-2.823-6.585-4.57-.982-4.684-1.31-8.343 0-13ZM667 1005c2.875-.125 2.875-.125 6 0l2 2-1 2a83.436 83.436 0 0 0-.316 4.57l-.127 2.715-.12 2.84-.13 2.863c-.107 2.337-.209 4.675-.307 7.012l3 1v1h-9l1.02-1.965c1.299-4.022 1-7.427.668-11.598l-.147-2.287c-.243-3.49-.626-6.776-1.541-10.15Z"/><path fill="#050807" d="M851.188 1058.375 853 1059l-3 1c-1.209 2-1.209 2-2 4l2.125.813c8.395 3.467 8.395 3.467 10.875 7.187.54 6.047.54 6.047-1.062 8.875-2.977 1.728-5.519 1.951-8.938 2.125-3.437-.937-3.437-.937-6-2v-4h2v2l10 1 3-5-3-1v-2l-3.187-.75c-3.626-1.017-6.012-2.704-8.813-5.25.313-2.875.313-2.875 1-6 3-2 3-2 5.188-1.625Z"/><path fill="#000302" d="M628 1056c2.007.287 4.009.619 6 1l-1 3a78.168 78.168 0 0 0-.133 4.598l-.004 2.677.012 2.787-.012 2.8.004 2.673.004 2.45c.002 2.086.002 2.086 1.129 4.015h-7c0-3 0-3 1-5a66.838 66.838 0 0 0-.156-4.535l-.16-2.701-.184-2.826c-.12-1.845-.234-3.69-.344-5.536l-.162-2.484C627 1057 627 1057 628 1056Z"/><path fill="#060908" d="M645 903h21l1 5-1-3h-8c.139 3.459.287 6.917.438 10.375l.119 2.984.127 2.852.11 2.634c.08 2.203.08 2.203 1.206 4.155h-6v-22c-2.917-.167-2.917-.167-6 0l-2 2-1-5Z"/><path fill="#040706" d="M766 708c2.434 2.242 3.857 3.756 4.242 7.102.007 1.967-.109 3.935-.242 5.898l-1-2-1.844-.875c-3.27-1.706-5.085-4.419-7.375-7.25-3.865-4.07-7.544-4.195-13.031-4.5l-3.828-.227L740 706v-1c18.029-2.19 18.029-2.19 26 3Z"/><path fill="#020504" d="M648 1056c2.242.008 2.242.008 5 1 1.77 2.436 2.916 5.127 4.125 7.875a626.377 626.377 0 0 0 2.008 4.367l.871 1.965c1.089 1.96 2.348 3.286 3.996 4.793l-2 6c-3.613-3.173-5.323-6.37-7.25-10.75l-1.578-3.547L652 1065h-2c-1.498-3.371-2-5.204-2-9Z"/><path fill="#040706" d="m703 956-2.875 1.188c-3.158 1.528-3.158 1.528-4.562 3.937-.819 4.181-1.073 7.828.437 11.875 3.56 3.51 8.015 5.533 13 6l1-2 3-2c-.875 3.875-.875 3.875-2 5-5.555.613-11.247 1.08-16.125-2-2.894-2.525-4.2-5.033-4.86-8.805-.028-3.991.946-7.76 2.985-11.195 1.992-1.195 1.992-1.195 4-2 2.49-1.245 3.41-.777 6 0Z"/><path fill="#010403" d="m671 1056 7 1-1.495 1.702c-1.77 2.703-1.803 3.887-1.58 7.064l.167 2.695.22 2.789.186 2.836c.153 2.306.32 4.61.502 6.914l2 1h-8l1-3c.07-2.228.085-4.458.063-6.687l-.028-3.575L671 1066h-2l-2 4c.782-4.847 2.398-9.377 4-14Z"/><path fill="#030605" d="M442 1056c1.675.286 3.344.618 5 1l-.562 3c-.571 4.508-.378 8.915-.125 13.438l.105 2.189c.116 1.798.34 3.588.582 5.373l2 1h-8l1-3c.094-2.207.13-4.416.125-6.625l.008-3.54c.19-2.736.19-2.736-1.133-3.835l-2 2c.308-1.647.621-3.292.938-4.937l.527-2.778C441 1057 441 1057 442 1056Z"/><path fill="#ECEDE9" d="M465 1058c6 0 6 0 7.813 1.063 1.744 2.846 1.877 5.655 2.187 8.937-3.678 3.395-4.37 3-10 3v-13Z"/><path fill="#020504" d="m619 905 2 1-1.437 1.5c-2.63 4.208-3.007 8.502-1.938 13.313 1.702 2.708 3.61 3.659 6.375 5.187v2h6v-2h3c1.688-1.438 1.688-1.438 3-3-1.75 4.875-1.75 4.875-4 6-5.791.733-10.198-.101-15.371-2.734-2.045-1.59-2.742-2.837-3.629-5.266-.266-2.437-.266-2.437-.25-5l-.016-2.562c.285-2.612.876-4.221 2.266-6.438 2-1.312 2-1.312 4-2Z"/><path fill="#010403" d="M765 954c2.938.25 2.938.25 6 1 2.449 3.673 2.315 5.664 2 10l-2 2c.27 4.22.918 6.186 4 9v3l3 1c-5.605-.48-7.914-3.565-11.426-7.664A347.08 347.08 0 0 1 763 968l6-2c.234-4.79.234-4.79-2-9l-3-2 1-1Z"/><path fill="#000302" d="m689 1056 7 1-.496 2.414c-.612 4.354-.612 8.572-.567 12.961l.014 2.52c.012 2.035.03 4.07.049 6.105l3 1h-8c0-2.437.015-4.872.035-7.309l.028-5.129.025-2.603.01-2.518.016-2.29c-.115-2.171-.516-4.066-1.114-6.151Z"/><path fill="#050807" d="M450 581c3.305 3.057 3.953 4.277 4.25 8.813L454 593c-3.324-2.717-6.438-5.268-9.062-8.687-3.148-3.757-6.139-5.076-10.993-5.715A230.891 230.891 0 0 0 425 578v-1c9.303-1.4 16.919-1.31 25 4Z"/><path fill="#000302" d="m503 1005 8 1-2 1v23l2 1h-7c0-2.352.014-4.703.035-7.055.01-1.606.019-3.213.027-4.82l.026-2.434c.017-4.036-.075-7.752-1.088-11.691Z"/><path fill="#010403" d="M519 708c3.978 4.501 4.6 8.213 5 14-3.287-2.39-5.897-4.97-8.5-8.062-4.82-5.565-8.434-7.22-15.707-7.825L498 706v-1c7.532-1.695 14.271-.752 21 3Z"/><path fill="#000302" d="M471 954c2.875-.125 2.875-.125 6 0l2 2-1 1a80.603 80.603 0 0 0-.316 4.691l-.127 2.862-.12 3.01-.13 3.021c-.107 2.472-.209 4.944-.307 7.416l3 1v1h-8v-3h2c-.114-2.897-.241-5.792-.375-8.687-.03-.817-.062-1.634-.094-2.475-.21-4.34-.548-7.88-2.531-11.838Z"/><path fill="#020504" d="M687.313 904.25 689 905l-2.937.75c-3.086.88-3.086.88-3.938 2.875L682 911l-.25 3.938c.056 3.78.793 6.079 3.25 9.062 2.067 1.328 2.067 1.328 4 2v2l8-1c-2 2-2 2-5.625 2.438-5.019-.138-8.689-2.095-12.375-5.438-2.454-4.516-2.119-8.058-1-13 4.824-7.235 4.824-7.235 9.313-6.75Z"/><path fill="#000302" d="M599 1056c8.113.347 8.113.347 11.375 2.75L612 1061l1.813 2.188c1.737 4.114 1.448 7.558.187 11.812-1.472 2.365-3.01 4.01-5 6l-2-1 1.5-1.437c2.245-3.835 2.135-7.225 1.5-11.563-.93-3.103-1.854-4.37-4-7-2.726-1.165-5.028-1.554-8-2l1-2ZM498 1056c2.875.125 2.875.125 6 1 2.245 2.607 3.048 4.045 2.875 7.5-.97 2.77-2.266 5.052-3.875 7.5l1.938 2.813C507 1078 507 1078 508 1081l2 1c-6.737-1.626-6.737-1.626-8.605-4.285l-1.582-2.777-1.606-2.786L497 1070l6-2c-.904-5.617-.904-5.617-4.125-10l-1.875-1 1-1Z"/><path fill="#010403" d="m544 903 10 1-4 2c-.029 3.104-.047 6.208-.062 9.313l-.026 2.67-.01 2.568-.016 2.364c.033 2.281.033 2.281 1.114 5.085h-6c0-2.364.014-4.726.035-7.09l.028-4.847.025-2.46.01-2.38.016-2.164c-.068-2.412-.068-2.412-1.114-6.059Z"/><path fill="#000302" d="m428 903 8 1-2 1c-.029 3.27-.047 6.542-.062 9.813l-.026 2.814-.01 2.705-.016 2.491c.027 2.359.027 2.359 1.114 5.177h-6l-1-2h2c-.14-3.084-.288-6.167-.437-9.25l-.12-2.645-.127-2.558-.11-2.349c-.202-2.155-.623-4.116-1.206-6.198Z"/><path fill="#040705" d="M815 1058c0 3 0 3-2 6-.691 4.74-.674 8.757 1.625 13 2.694 2.269 4.977 3.15 8.375 4v2c-5.697-.349-9.968-1.774-14-6-1.61-4.599-1.564-9.345 0-13.937l1-2.063h2c1.625-1.458 1.625-1.458 3-3Z"/><path fill="#E8E9E5" d="M552.938 904.75 556 905c2.125 3.188 2.502 5.265 3 9-3.265 1.884-6.281 2.493-10 3a920.276 920.276 0 0 1-.062-5.437l-.036-3.06c.142-3.62.378-3.442 4.035-3.753Z"/><path fill="#EEEFEB" d="M495 1058c2.313-.25 2.313-.25 5 0 3.11 2.889 3.533 5.887 4 10-3.312 1.125-3.312 1.125-7 2l-3-2c-.328-1.875-.328-1.875-.25-4l.047-2.125C494 1060 494 1060 495 1058ZM761 956c2.813-.25 2.813-.25 6 0 1.875 1.625 1.875 1.625 3 4 .188 3.25.188 3.25 0 6-2.945.982-4.935 1.161-8 1-1-1-1-1-1.098-3.285l.035-2.778.028-2.785L761 956Z"/><path fill="#F1F2EE" d="M724 1007c2.875-.187 2.875-.187 6 0 2.43 3.644 2.162 5.712 2 10-6.152.879-6.152.879-8 1-1-1-1-1-1.125-4.375C723 1010 723 1010 724 1007ZM721 905c2.813-.25 2.813-.25 6 0 1.875 1.625 1.875 1.625 3 4 .188 3.25.188 3.25 0 6l-8 1c-1.203-2.405-1.1-3.95-1.062-6.625l.027-2.477L721 905Z"/><path fill="#070A09" d="m759 1056 7 1-.437 1.617c-1.3 5.218-1.73 9.943-1.536 15.317C764 1076 764 1076 763 1078h-2l-2-5h1c.027-2.083.046-4.167.063-6.25l.035-3.516c-.08-2.644-.312-4.732-1.098-7.234Z"/><path fill="#030605" d="m604 954 7 1-1 2c-.281 3.732-.447 7.464-.621 11.203-.356 3.571-1.1 6.46-2.379 9.797l-3-1 2-2c.2-1.891.2-1.891.012-4.027l-.143-2.4-.182-2.51-.146-2.499c-.22-3.431-.447-6.28-1.541-9.564Z"/><path fill="#090C0B" d="M757 906c1.161 3.483.772 4.519-.312 7.938l-.801 2.59C755 919 755 919 753.902 921.144c-1.152 2.37-1.046 4.254-.902 6.855h-5c0-3 0-3 2-6h2l1-9h2v-5h2v-2Z"/><path fill="#0B0E0D" d="m671 1056 7 1-3.71 4.395c-1.182 1.47-2.244 3.035-3.29 4.605h-2l-2 4c.782-4.847 2.398-9.377 4-14Z"/><path fill="#000302" d="m708 634 2 1c.043 2 .04 4 0 6-1 1-1 1-3.941 1.098l-3.621-.035-3.63-.028L696 642v-1l1.863-.516c5.11-1.451 5.11-1.451 9.2-4.672L708 634ZM541 1005c2.875-.125 2.875-.125 6 0l2 2-1 1a253.531 253.531 0 0 0-.562 8.563l-.131 2.443A1762.98 1762.98 0 0 0 547 1025h-1v-13h-2l-3-7Z"/><path fill="#010403" d="M571 1056c2.375-.187 2.375-.187 5 0l2 3-1 2c-.232 2.713-.42 5.408-.562 8.125l-.131 2.285A1636.52 1636.52 0 0 0 576 1077h-1v-16l-3-1c-.687-2.062-.687-2.062-1-4Z"/><path fill="#000302" d="m672 954 8 1-2 1-1 18h-1l-.367-3.36-.508-4.39-.238-2.21c-.438-3.708-.886-6.845-2.887-10.04Z"/><path fill="#E0E1DD" d="M758 907c2.779 2.779 2.652 5.171 3 9-1 1-1 1-3.562 1.063L755 917c.61-3.558 1.578-6.683 3-10Z"/><path fill="#000302" d="m595 903 7 1-2 1-.148 3.648-.227 4.727c-.03.794-.062 1.588-.094 2.406-.304 5.992-.304 5.992-2.531 8.219l1-17-3-1v-3Z"/><path fill="#999896" d="m776 615 2 1v12h-2c-1.25-2.501-1.133-4.274-1.125-7.062l-.008-2.723C775 616 775 616 776 615Z"/><path fill="#020504" d="M650 1066h1l-.07 2.992-.055 3.883-.07 3.867c-.161 3.344-.161 3.344 2.195 5.258h-7l2-8h2v-8Z"/><path fill="#565856" d="M761 1062h1v8h2c.125 5.75.125 5.75-1 8h-2l-2-5h1l1-11Z"/><path fill="#020504" d="M703 953c7.75.75 7.75.75 10 3 .125 3.125.125 3.125 0 6l-1-4-1.687-.375c-2.534-.685-4.892-1.616-7.313-2.625v-2Z"/><path fill="#000302" d="M565 1022c1.097 3.29.8 4.713 0 8l2 1h-7v-3h2l.375-2.437L563 1023l2-1ZM421 1073c.976 2.928 1.082 4.956 1 8l2 1h-7l-1-2 2-1 .5-2.5.5-2.5 2-1Z"/><path fill="#020504" d="m615 1005 8 1-4 6c-2-1.812-2-1.812-4-4v-3Z"/><path fill="#0F1211" d="M554 1072c2 2 2 2 2.5 5.563l.5 3.437 2 1h-7l-1-2 2-1c.407-2.322.744-4.657 1-7Z"/><path fill="#F1F2EE" d="M760 1010c2.9 2.395 3.502 4.312 4 8h-5c-1-2-1-2-.062-5.125L760 1010Z"/><path fill="#020504" d="M727 1077c.563 1.938.563 1.938 1 4-1 1-1 1-3.504 1.098l-3.058-.035-3.067-.028L716 1082l1-2c2.323-.393 4.618-.507 6.969-.656L726 1079l1-2Z"/><path fill="#F1F2EE" d="m570 1011 3 1c1.188 3.063 1.188 3.063 2 6h-6l1-7Z"/><path fill="#020504" d="m540 1077 1 3c-2 2-2 2-4.383 2.195l-2.742-.07-2.758-.055L529 1082l1-2c2.323-.393 4.618-.507 6.969-.656L539 1079l1-2ZM744 1075l2 7h-6c0-3 0-3 1-6 2-1 2-1 3-1ZM650.125 1004.875 653 1005c2.125 4.625 2.125 4.625 1 8l-1-4-8-2c2-2 2-2 5.125-2.125Z"/><path fill="#000302" d="m494 972 4 8h-6l-1-3h2l1-5Z"/><path fill="#020504" d="m467 903 7 1-2 10h-1v-7l-4-2v-2ZM624 902c6.625-.25 6.625-.25 10 2l-1 4-1.687-1.437c-2.496-1.687-4.358-2.153-7.313-2.563v-2Z"/><path fill="#535553" d="M545 603c5.35.57 10.678 1.207 16 2l-1 2-14-1-1-3Z"/></svg>